<?xml version="1.0" encoding="UTF-8" standalone="no"?>
<svg
   width="5.5033336mm"
   height="6.7662072mm"
   viewBox="0 0 5.5033336 6.7662073"
   version="1.1"
   id="svg4"
   sodipodi:docname="pdf.svg"
   inkscape:version="1.4 (e7c3feb1, 2024-10-09)"
   xmlns:inkscape="http://www.inkscape.org/namespaces/inkscape"
   xmlns:sodipodi="http://sodipodi.sourceforge.net/DTD/sodipodi-0.dtd"
   xmlns="http://www.w3.org/2000/svg"
   xmlns:svg="http://www.w3.org/2000/svg">
  <defs
     id="defs4" />
  <sodipodi:namedview
     id="namedview4"
     pagecolor="#ffffff"
     bordercolor="#000000"
     borderopacity="0.25"
     inkscape:showpageshadow="2"
     inkscape:pageopacity="0.0"
     inkscape:pagecheckerboard="0"
     inkscape:deskcolor="#d1d1d1"
     inkscape:document-units="mm"
     showgrid="false"
     inkscape:zoom="33.347584"
     inkscape:cx="8.0515577"
     inkscape:cy="14.948609"
     inkscape:window-width="1440"
     inkscape:window-height="916"
     inkscape:window-x="0"
     inkscape:window-y="38"
     inkscape:window-maximized="1"
     inkscape:current-layer="svg4" />
  <g
     transform="matrix(0.10845212,0,0,0.10845212,3.9125373,-13.44232)"
     id="g4">
    <path
       fill="#ff2116"
       d="m -29.632812,123.94727 c -3.551967,0 -6.44336,2.89347 -6.44336,6.44531 v 49.49804 c 0,3.55185 2.891393,6.44532 6.44336,6.44532 H 8.2167969 c 3.5519661,0 6.4433591,-2.89335 6.4433591,-6.44532 v -40.70117 c 0,0 0.101353,-1.19181 -0.416015,-2.35156 -0.484969,-1.08711 -1.275391,-1.84375 -1.275391,-1.84375 a 1.0584391,1.0584391 0 0 0 -0.0059,-0.008 L 3.5722246,125.7752 a 1.0584391,1.0584391 0 0 0 -0.015625,-0.0156 c 0,0 -0.8017392,-0.76344 -1.9902344,-1.27344 -1.39939552,-0.6005 -2.8417968,-0.53711 -2.8417968,-0.53711 l 0.021484,-0.002 z"
       color="#000000"
       font-family="sans-serif"
       overflow="visible"
       paint-order="markers fill stroke"
       style="line-height:normal;font-variant-ligatures:normal;font-variant-position:normal;font-variant-caps:normal;font-variant-numeric:normal;font-variant-alternates:normal;font-feature-settings:normal;text-indent:0;text-align:start;text-decoration-line:none;text-decoration-style:solid;text-decoration-color:#000000;text-transform:none;text-orientation:mixed;white-space:normal;shape-padding:0;isolation:auto;mix-blend-mode:normal;solid-color:#000000;solid-opacity:1"
       id="path1" />
    <path
       fill="#f5f5f5"
       d="m -29.632812,126.06445 h 28.3789058 a 1.0584391,1.0584391 0 0 0 0.021484,0 c 0,0 1.13480448,0.011 1.96484378,0.36719 0.79889772,0.34282 1.36536982,0.86176 1.36914062,0.86524 1.25e-5,1e-5 0.00391,0.004 0.00391,0.004 l 9.3671868,9.18945 c 0,0 0.564354,0.59582 0.837891,1.20899 0.220779,0.49491 0.234375,1.40039 0.234375,1.40039 a 1.0584391,1.0584391 0 0 0 -0.002,0.0449 v 40.74609 c 0,2.41592 -1.910258,4.32813 -4.3261717,4.32813 H -29.632812 c -2.415914,0 -4.326172,-1.91209 -4.326172,-4.32813 v -49.49804 c 0,-2.41603 1.910258,-4.32813 4.326172,-4.32813 z"
       color="#000000"
       font-family="sans-serif"
       overflow="visible"
       paint-order="markers fill stroke"
       style="line-height:normal;font-variant-ligatures:normal;font-variant-position:normal;font-variant-caps:normal;font-variant-numeric:normal;font-variant-alternates:normal;font-feature-settings:normal;text-indent:0;text-align:start;text-decoration-line:none;text-decoration-style:solid;text-decoration-color:#000000;text-transform:none;text-orientation:mixed;white-space:normal;shape-padding:0;isolation:auto;mix-blend-mode:normal;solid-color:#000000;solid-opacity:1"
       id="path2" />
    <path
       fill="#ff2116"
       d="m -23.40766,161.09299 c -1.45669,-1.45669 0.11934,-3.45839 4.39648,-5.58397 l 2.69124,-1.33743 1.04845,-2.29399 c 0.57665,-1.26169 1.43729,-3.32036 1.91254,-4.5748 l 0.8641,-2.28082 -0.59546,-1.68793 c -0.73217,-2.07547 -0.99326,-5.19438 -0.52872,-6.31588 0.62923,-1.51909 2.69029,-1.36323 3.50626,0.26515 0.63727,1.27176 0.57212,3.57488 -0.18329,6.47946 l -0.6193,2.38125 0.5455,0.92604 c 0.30003,0.50932 1.1764,1.71867 1.9475,2.68743 l 1.44924,1.80272 1.8033728,-0.23533 c 5.72900399,-0.74758 7.6912472,0.523 7.6912472,2.34476 0,2.29921 -4.4984914,2.48899 -8.2760865,-0.16423 -0.8499666,-0.59698 -1.4336605,-1.19001 -1.4336605,-1.19001 0,0 -2.3665326,0.48178 -3.531704,0.79583 -1.202707,0.32417 -1.80274,0.52719 -3.564509,1.12186 0,0 -0.61814,0.89767 -1.02094,1.55026 -1.49858,2.4279 -3.24833,4.43998 -4.49793,5.1723 -1.3991,0.81993 -2.86584,0.87582 -3.60433,0.13733 z m 2.28605,-0.81668 c 0.81883,-0.50607 2.47616,-2.46625 3.62341,-4.28553 l 0.46449,-0.73658 -2.11497,1.06339 c -3.26655,1.64239 -4.76093,3.19033 -3.98386,4.12664 0.43653,0.52598 0.95874,0.48237 2.01093,-0.16792 z m 21.21809,-5.95578 c 0.80089,-0.56097 0.68463,-1.69142 -0.22082,-2.1472 -0.70466,-0.35471 -1.2726074,-0.42759 -3.1031574,-0.40057 -1.1249,0.0767 -2.9337647,0.3034 -3.2403347,0.37237 0,0 0.993716,0.68678 1.434896,0.93922 0.58731,0.33544 2.0145161,0.95811 3.0565161,1.27706 1.02785,0.31461 1.6224,0.28144 2.0729,-0.0409 z m -8.53152,-3.54594 c -0.4847,-0.50952 -1.30889,-1.57296 -1.83152,-2.3632 -0.68353,-0.89643 -1.02629,-1.52887 -1.02629,-1.52887 0,0 -0.4996,1.60694 -0.90948,2.57394 l -1.27876,3.16076 -0.37075,0.71695 c 0,0 1.971043,-0.64627 2.97389,-0.90822 1.0621668,-0.27744 3.21787,-0.70134 3.21787,-0.70134 z m -2.74938,-11.02573 c 0.12363,-1.0375 0.1761,-2.07346 -0.15724,-2.59587 -0.9246,-1.01077 -2.04057,-0.16787 -1.85154,2.23517 0.0636,0.8084 0.26443,2.19033 0.53292,3.04209 l 0.48817,1.54863 0.34358,-1.16638 c 0.18897,-0.64151 0.47882,-2.02015 0.64411,-3.06364 z"
       id="path3" />
    <path
       fill="#2c2c2c"
       d="m -20.930423,167.83862 h 2.364986 q 1.133514,0 1.840213,0.2169 0.706698,0.20991 1.189489,0.9446 0.482795,0.72769 0.482795,1.75625 0,0.94459 -0.391832,1.6233 -0.391833,0.67871 -1.056548,0.97958 -0.65772,0.30087 -2.02913,0.30087 h -0.818651 v 3.72941 h -1.581322 z m 1.581322,1.22447 v 3.33058 h 0.783664 q 1.049552,0 1.44838,-0.39184 0.405826,-0.39183 0.405826,-1.27345 0,-0.65772 -0.265887,-1.06355 -0.265884,-0.41282 -0.587747,-0.50378 -0.314866,-0.098 -1.000572,-0.098 z m 5.50664,-1.22447 h 2.148082 q 1.560333,0 2.4909318,0.55276 0.9375993,0.55276 1.4133973,1.6443 0.482791,1.09153 0.482791,2.42096 0,1.3994 -0.4338151,2.49793 -0.4268149,1.09153 -1.3154348,1.76324 -0.8816233,0.67172 -2.5189212,0.67172 h -2.267031 z m 1.581326,1.26645 v 7.018 h 0.657715 q 1.378411,0 2.001144,-0.9516 0.6227329,-0.95858 0.6227329,-2.5539 0,-3.5125 -2.6238769,-3.5125 z m 6.4722254,-1.26645 h 5.30372941 v 1.26645 H -4.2075842 v 2.85478 h 2.9807225 v 1.26646 h -2.9807225 v 4.16322 h -1.5813254 z"
       font-family="'Franklin Gothic Medium Cond'"
       letter-spacing="0"
       style="line-height:125%;-inkscape-font-specification:'Franklin Gothic Medium Cond'"
       word-spacing="4.26"
       id="path4" />
  </g>
</svg>
